<svg width="78" height="77" viewBox="0 0 78 77" fill="none" xmlns="http://www.w3.org/2000/svg">
<path d="M16.272 56.576C13.52 56.576 11.056 55.904 8.88 54.56C6.704 53.184 4.992 51.2 3.744 48.608C2.496 46.016 1.872 42.88 1.872 39.2C1.872 35.52 2.496 32.384 3.744 29.792C4.992 27.2 6.704 25.232 8.88 23.888C11.056 22.512 13.52 21.824 16.272 21.824C19.056 21.824 21.52 22.512 23.664 23.888C25.84 25.232 27.552 27.2 28.8 29.792C30.048 32.384 30.672 35.52 30.672 39.2C30.672 42.88 30.048 46.016 28.8 48.608C27.552 51.2 25.84 53.184 23.664 54.56C21.52 55.904 19.056 56.576 16.272 56.576ZM16.272 50C17.584 50 18.72 49.632 19.68 48.896C20.672 48.16 21.44 46.992 21.984 45.392C22.56 43.792 22.848 41.728 22.848 39.2C22.848 36.672 22.56 34.608 21.984 33.008C21.44 31.408 20.672 30.24 19.68 29.504C18.72 28.768 17.584 28.4 16.272 28.4C14.992 28.4 13.856 28.768 12.864 29.504C11.904 30.24 11.136 31.408 10.56 33.008C10.016 34.608 9.744 36.672 9.744 39.2C9.744 41.728 10.016 43.792 10.56 45.392C11.136 46.992 11.904 48.16 12.864 48.896C13.856 49.632 14.992 50 16.272 50ZM39.4466 56V25.28L42.8066 28.64H32.7266V22.4H47.2226V56H39.4466Z" fill="#31000F"/>
<path d="M54.328 44.4L62.248 21.792H64.336L56.416 44.4H54.328ZM69.7255 42.192C68.5415 42.192 67.3895 42.008 66.2695 41.64C65.1655 41.272 64.2615 40.776 63.5575 40.152L64.6615 38.256C65.2215 38.784 65.9495 39.216 66.8455 39.552C67.7415 39.888 68.7015 40.056 69.7255 40.056C70.9735 40.056 71.9415 39.792 72.6295 39.264C73.3335 38.72 73.6855 37.992 73.6855 37.08C73.6855 36.2 73.3495 35.496 72.6775 34.968C72.0215 34.424 70.9735 34.152 69.5335 34.152H68.1895V32.472L73.1815 26.328L73.5175 27.288H64.3255V25.2H75.4135V26.832L70.4455 32.952L69.1975 32.208H69.9895C72.0215 32.208 73.5415 32.664 74.5495 33.576C75.5735 34.488 76.0855 35.648 76.0855 37.056C76.0855 38 75.8535 38.864 75.3895 39.648C74.9255 40.432 74.2215 41.056 73.2775 41.52C72.3495 41.968 71.1655 42.192 69.7255 42.192Z" fill="black"/>
</svg>
