<svg width="46" height="46" viewBox="0 0 46 46" fill="none" xmlns="http://www.w3.org/2000/svg">
<path d="M9.74444 3.51709L7.75478 5.50392L10.7152 8.46297L12.7021 6.47614L9.74303 3.51709H9.74444ZM35.7103 3.51709L32.7499 6.47614L34.7381 8.46297L37.6972 5.50534L35.7089 3.51709H35.7103ZM22.7267 4.39887C22.2604 4.40452 21.7884 4.43137 21.3136 4.48931C21.2994 4.48931 21.2853 4.48648 21.2712 4.48931C15.5396 5.14641 10.9781 9.77716 10.1853 15.4833C9.55226 20.0759 11.4458 24.2403 14.6013 26.9224C15.892 28.024 16.7651 29.5356 17.0742 31.2041V39.6828H20.2961C20.7879 40.5264 21.6852 41.0959 22.7267 41.0959C23.7681 41.0959 24.6655 40.5264 25.1572 39.6828H28.3791V34.0304H28.512V32.3516C28.512 30.28 29.5887 28.1914 31.3382 26.5677C33.6783 24.2248 35.4447 20.8969 35.4447 17.0745C35.4447 10.0937 29.699 4.33387 22.7267 4.39887ZM22.7267 7.22509C28.1884 7.14878 32.6184 11.6199 32.6184 17.0745C32.6184 20.0335 31.2477 22.6393 29.3499 24.5357L29.3951 24.5809C27.5092 26.32 26.2897 28.6631 25.9472 31.2056H19.7662C19.4553 28.7835 18.4167 26.4391 16.4539 24.7575C13.9569 22.6379 12.4689 19.4442 12.9663 15.838C13.5839 11.3867 17.1958 7.80729 21.6216 7.31694C21.987 7.266 22.355 7.2358 22.7239 7.2265L22.7267 7.22509ZM2.94315 17.0745V19.9007H7.18247V17.0745H2.94315ZM38.2709 17.0745V19.9007H42.5102V17.0745H38.2709ZM10.7152 28.5122L7.7562 31.4698L9.74444 33.4581L12.7007 30.499L10.7152 28.5122ZM34.7381 28.5122L32.7513 30.499L35.7089 33.4581L37.6972 31.4698L34.7381 28.5122ZM19.9005 34.0318H25.5529V36.858H19.9005V34.0318Z" fill="#E20044"/>
</svg>
