<svg width="16" height="15" viewBox="0 0 16 15" fill="none" xmlns="http://www.w3.org/2000/svg">
<path d="M13.575 4.96922L10.0016 4.44989L8.40421 1.21146C8.36058 1.12279 8.2888 1.05102 8.20013 1.00739C7.97777 0.89761 7.70754 0.989091 7.59636 1.21146L5.99896 4.44989L2.42558 4.96922C2.32706 4.98329 2.23699 5.02973 2.16802 5.1001C2.08465 5.18579 2.03871 5.30108 2.04029 5.42063C2.04188 5.54017 2.09085 5.6542 2.17647 5.73766L4.76186 8.25831L4.15105 11.8176C4.13672 11.9004 4.14589 11.9856 4.1775 12.0634C4.2091 12.1413 4.2619 12.2087 4.32988 12.2581C4.39787 12.3075 4.47833 12.3368 4.56215 12.3428C4.64596 12.3488 4.72977 12.3311 4.80408 12.2919L8.00028 10.6115L11.1965 12.2919C11.2837 12.3384 11.3851 12.3538 11.4822 12.3369C11.7271 12.2947 11.8917 12.0625 11.8495 11.8176L11.2387 8.25831L13.8241 5.73766C13.8945 5.66869 13.9409 5.57862 13.955 5.4801C13.993 5.23381 13.8213 5.00581 13.575 4.96922Z" fill="#FFC700"/>
</svg>
